<?xml version="1.0" standalone="no"?><!DOCTYPE svg PUBLIC "-//W3C//DTD SVG 1.1//EN" "http://www.w3.org/Graphics/SVG/1.1/DTD/svg11.dtd"><svg t="1490754255283" class="icon" style="" viewBox="0 0 1256 1024" version="1.1" xmlns="http://www.w3.org/2000/svg" p-id="4613" xmlns:xlink="http://www.w3.org/1999/xlink" width="24.53125" height="20"><defs><style type="text/css"></style></defs><path d="M405.721212 0h55.544243c187.42303 5.430303 384.775758 119.932121 432.562424 310.613333-118.535758-7.447273-243.277576 29.013333-325.507879 117.76-83.471515 85.02303-114.501818 213.488485-83.316364 328.145455-65.939394 2.327273-131.258182-6.826667-195.335757-21.876364-52.130909 25.444848-103.641212 51.820606-155.772121 77.420606 14.429091-44.218182 29.168485-88.436364 43.752727-132.654545C84.402424 613.313939 6.361212 514.637576 0 396.412121v-44.528485C17.997576 149.410909 215.505455 15.36 405.721212 0m-134.981818 195.490909c-19.704242 7.912727-39.563636 28.082424-36.150303 50.889697 1.241212 58.957576 102.710303 75.403636 118.070303 16.446061 18.928485-48.872727-38.322424-91.229091-81.92-67.335758m310.30303 0.465455c-20.324848 8.533333-39.718788 30.254545-34.753939 53.837575 5.12 56.940606 103.951515 70.749091 118.070303 12.101819 18.618182-49.18303-40.339394-90.453333-83.316364-65.939394z" fill="#58B202" p-id="4614"></path><path d="M521.774545 552.494545c58.181818-147.083636 224.193939-226.055758 376.552728-217.212121 166.477576 5.12 335.592727 124.276364 358.4 296.494546v45.459394c-11.791515 98.831515-80.368485 176.407273-155.61697 235.52 10.860606 37.236364 21.255758 74.472727 33.82303 111.243636h-0.620606c-40.96-21.876364-81.299394-45.149091-122.414545-66.715152-142.739394 45.149091-311.699394 16.756364-419.529697-90.608484-82.075152-78.81697-117.449697-207.90303-70.59394-314.181819m212.867879-33.357575c-22.031515 12.101818-30.72 43.907879-12.877576 63.456969 23.893333 33.667879 86.109091 16.446061 89.832728-24.358787 0.775758-36.305455-48.717576-57.716364-76.955152-39.098182m248.397576-2.172122c-19.238788 9.464242-34.909091 36.305455-21.410909 56.630304 17.532121 43.907879 91.539394 29.168485 94.797576-16.29091-0.930909-34.288485-44.683636-54.768485-73.386667-40.339394z" fill="#58B202" p-id="4615"></path></svg>