<?xml version="1.0" standalone="no"?><!DOCTYPE svg PUBLIC "-//W3C//DTD SVG 1.1//EN" "http://www.w3.org/Graphics/SVG/1.1/DTD/svg11.dtd"><svg t="1490754324690" class="icon" style="" viewBox="0 0 1024 1024" version="1.1" xmlns="http://www.w3.org/2000/svg" p-id="5282" xmlns:xlink="http://www.w3.org/1999/xlink" width="20" height="20"><defs><style type="text/css"></style></defs><path d="M758.186667 527.658667c-39.808-7.722667-20.437333-29.226667-20.437334-29.226667s38.912-64.341333-7.68-111.146667c-57.856-57.941333-198.4 7.381333-198.4 7.381334-53.632 16.682667-39.381333-7.637333-31.786666-49.024 0-48.725333-16.682667-131.242667-159.616-82.517334-142.805333 49.024-265.472 220.672-265.472 220.672C-10.453333 597.888 0.853333 686.08 0.853333 686.08c21.333333 194.688 227.584 248.106667 388.010667 260.736 168.789333 13.269333 396.672-58.325333 465.706667-205.44 69.12-147.370667-56.448-205.653333-96.426667-213.674667z m-356.778667 364.245333c-167.637333 7.850667-303.061333-76.373333-303.061333-188.501333 0-112.256 135.424-202.24 303.061333-210.005334 167.68-7.765333 303.36 61.525333 303.36 173.525334 0 112.128-135.68 217.344-303.36 224.981333z" fill="#E63C53" p-id="5283"></path><path d="M367.914667 567.338667c-168.533333 19.754667-149.034667 178.048-149.034667 178.048s-1.706667 50.090667 45.226667 75.648c98.56 53.546667 200.106667 21.12 251.434666-45.312 51.285333-66.432 21.205333-228.053333-147.626666-208.384z m-42.496 222.122666c-31.445333 3.712-56.832-14.506667-56.832-40.874666 0-26.282667 22.528-53.802667 54.016-57.088 36.138667-3.456 59.733333 17.408 59.733333 43.818666 0 26.282667-25.557333 50.56-56.917333 54.186667z m99.370666-84.864c-10.666667 8.021333-23.765333 6.912-29.397333-2.688-5.888-9.344-3.669333-24.32 7.082667-32.170666 12.501333-9.344 25.472-6.656 31.146666 2.688 5.632 9.6 1.578667 23.936-8.832 32.170666z m415.488-245.461333a27.434667 27.434667 0 0 0 27.434667-26.154667c20.565333-185.6-151.68-153.6-151.68-153.6a27.605333 27.605333 0 0 0-27.52 27.861334c0 15.189333 12.245333 27.605333 27.52 27.605333 123.733333-27.392 96.426667 96.64 96.426667 96.64 0 15.36 12.458667 27.648 27.818666 27.648z" fill="#E63C53" p-id="5284"></path><path d="M820.224 135.253333c-59.605333-13.994667-120.832-1.92-137.984 1.365334-1.28 0.128-2.56 1.365333-3.797333 1.621333-0.597333 0.128-0.938667 0.725333-0.938667 0.725333a40.533333 40.533333 0 0 0 10.88 79.36s21.674667-2.901333 36.352-8.661333c14.592-5.888 137.898667-4.394667 199.210667 98.730667 33.408 75.306667 14.677333 125.653333 12.373333 133.76 0 0-7.978667 19.584-7.978667 38.826666 0 22.186667 17.877333 36.181333 40.021334 36.181334 18.517333 0 34.048-2.56 38.613333-33.92h0.256c65.792-219.776-80.469333-323.072-187.008-347.989334z" fill="#E63C53" p-id="5285"></path></svg>