<?xml version="1.0" standalone="no"?><!DOCTYPE svg PUBLIC "-//W3C//DTD SVG 1.1//EN" "http://www.w3.org/Graphics/SVG/1.1/DTD/svg11.dtd"><svg t="1490754795785" class="icon" style="" viewBox="0 0 1024 1024" version="1.1" xmlns="http://www.w3.org/2000/svg" p-id="10279" xmlns:xlink="http://www.w3.org/1999/xlink" width="20" height="20"><defs><style type="text/css"></style></defs><path d="M949.676248 134.005017 76.592422 134.005017c-41.034579 0-74.302263 33.745569-74.302263 75.386968l0 603.14486c0 41.659819 33.267685 75.408457 74.302263 75.408457l873.083825 0c41.032532 0 74.302263-33.748638 74.302263-75.408457L1023.978511 209.391984C1023.978511 167.750585 990.707756 134.005017 949.676248 134.005017L949.676248 134.005017zM931.104263 737.149876c0 31.227212-24.958438 56.547901-55.741535 56.547901L150.902872 793.697777c-30.783097 0-55.730279-25.310456-55.730279-56.547901L95.172593 284.786115c0-31.227212 24.948205-56.545854 55.730279-56.545854l724.46088 0c30.783097 0 55.741535 25.317619 55.741535 56.545854L931.105287 737.149876 931.104263 737.149876zM931.104263 737.149876" p-id="10280"></path><path d="M290.213731 520.401344c61.566194 0 111.472837-50.641377 111.472837-113.085568 0-62.46568-49.906643-113.096824-111.472837-113.096824-61.554938 0-111.454418 50.631144-111.454418 113.096824C178.759313 469.759967 228.65777 520.401344 290.213731 520.401344L290.213731 520.401344zM290.213731 520.401344" p-id="10281"></path><path d="M847.51038 624.066355l-297.229518 0c-20.512173 0-37.140898 16.874319-37.140898 37.6986 0 20.814048 16.628726 37.688367 37.140898 37.688367l297.229518 0c20.522406 0 37.151132-16.874319 37.151132-37.688367C884.661511 640.940674 868.032786 624.066355 847.51038 624.066355L847.51038 624.066355zM847.51038 624.066355" p-id="10282"></path><path d="M383.106398 548.679387 197.34153 548.679387c-30.783097 0-55.733349 25.310456-55.733349 56.537667l0 122.514311 297.218262 0L438.826444 605.217055C438.826444 573.989843 413.889495 548.679387 383.106398 548.679387L383.106398 548.679387zM383.106398 548.679387" p-id="10283"></path><path d="M847.51038 473.27093l-297.229518 0c-20.512173 0-37.140898 16.874319-37.140898 37.6986 0 20.814048 16.628726 37.709857 37.140898 37.709857l297.229518 0c20.522406 0 37.151132-16.895809 37.151132-37.709857C884.661511 490.14525 868.032786 473.27093 847.51038 473.27093L847.51038 473.27093zM847.51038 473.27093" p-id="10284"></path><path d="M847.51038 322.485739l-297.229518 0c-20.512173 0-37.140898 16.874319-37.140898 37.6986 0 20.817118 16.628726 37.6986 37.140898 37.6986l297.229518 0c20.522406 0 37.151132-16.882506 37.151132-37.6986C884.661511 339.360058 868.032786 322.485739 847.51038 322.485739L847.51038 322.485739zM847.51038 322.485739" p-id="10285"></path></svg>