<?xml version="1.0" standalone="no"?><!DOCTYPE svg PUBLIC "-//W3C//DTD SVG 1.1//EN" "http://www.w3.org/Graphics/SVG/1.1/DTD/svg11.dtd"><svg t="1490755630346" class="icon" style="" viewBox="0 0 1024 1024" version="1.1" xmlns="http://www.w3.org/2000/svg" p-id="11492" xmlns:xlink="http://www.w3.org/1999/xlink" width="20" height="20"><defs><style type="text/css"></style></defs><path d="M754.782 212.596 512 455.368 269.218 212.596c-13.081-13.081-34.29-13.081-47.369 0-13.081 13.081-13.081 34.288 0 47.367l242.782 242.771L221.849 745.507c-13.081 13.081-13.081 34.288 0 47.367 13.081 13.081 34.29 13.081 47.369 0L512 550.103l242.782 242.771c13.081 13.081 34.289 13.081 47.37 0 13.081-13.081 13.081-34.288 0-47.367L559.37 502.735l242.782-242.771c13.081-13.081 13.081-34.288 0-47.367C789.07 199.517 767.862 199.517 754.782 212.596z" p-id="11493" fill="#1abc9c"></path></svg>