<?xml version="1.0" standalone="no"?><!DOCTYPE svg PUBLIC "-//W3C//DTD SVG 1.1//EN" "http://www.w3.org/Graphics/SVG/1.1/DTD/svg11.dtd"><svg t="1490754711787" class="icon" style="" viewBox="0 0 1024 1024" version="1.1" xmlns="http://www.w3.org/2000/svg" p-id="8945" xmlns:xlink="http://www.w3.org/1999/xlink" width="20" height="20"><defs><style type="text/css"></style></defs><path d="M794.555819 1022.209214 229.439064 1022.209214c-69.305459 0-125.607766-59.490929-125.607766-132.73407L103.831298 491.571738c0-73.144904 56.30333-132.63481 125.607766-132.63481l32.587186 0c-3.338025-16.541745-5.132904-33.580816-5.132904-51.021024l0-51.021024c0-140.90517 114.199948-255.104095 255.107165-255.104095 140.854005 0 255.104095 114.198925 255.104095 255.104095l0 51.021024c0 17.439184-1.795902 34.479279-5.132904 51.021024l32.584116 0c69.258387 0 125.611859 59.489906 125.611859 132.63481l0 397.903405C920.167678 962.718285 863.814206 1022.209214 794.555819 1022.209214zM460.977441 702.132338l0 115.993804c0 28.099988 22.870894 51.02 51.02307 51.02 28.149107 0 51.02-22.920012 51.02-51.02L563.020512 702.132338c30.93864-17.538445 52.014654-50.223868 52.014654-88.090291 0-56.402591-46.137807-102.042047-103.034655-102.042047-56.952106 0-103.089913 45.639456-103.089913 102.042047C408.910599 651.90847 430.036755 684.593893 460.977441 702.132338zM665.06256 256.894881c0-84.552721-68.509327-153.063071-153.062048-153.063071-84.554768 0-153.065118 68.509327-153.065118 153.063071l0 102.042047 306.127166 0L665.06256 256.894881z" p-id="8946"></path></svg>