<?xml version="1.0" standalone="no"?><!DOCTYPE svg PUBLIC "-//W3C//DTD SVG 1.1//EN" "http://www.w3.org/Graphics/SVG/1.1/DTD/svg11.dtd"><svg t="1490581657746" class="icon" style="" viewBox="0 0 1024 1024" version="1.1" xmlns="http://www.w3.org/2000/svg" p-id="2378" xmlns:xlink="http://www.w3.org/1999/xlink" width="20" height="20"><defs><style type="text/css"></style></defs><path d="M512 111.702058c-221.079164 0-400.297942 179.219801-400.297942 400.297942 0 221.079164 179.218778 400.297942 400.297942 400.297942 221.078141 0 400.297942-179.218778 400.297942-400.297942C912.297942 290.921859 733.078141 111.702058 512 111.702058zM701.376115 702.651155c-8.806573 8.807596-23.085788 8.807596-31.893384 0L510.688121 543.856545l-158.223604 158.224628c-8.807596 8.806573-23.086811 8.806573-31.893384 0-8.807596-8.807596-8.807596-23.085788 0-31.894408l158.223604-158.223604L322.588069 355.75547c-8.807596-8.807596-8.807596-23.085788 0-31.892361 8.806573-8.807596 23.085788-8.807596 31.893384 0l156.206668 156.206668 155.061588-159.363568c8.807596-8.807596 23.085788-8.807596 31.893384 0 8.806573 8.807596 8.807596 23.085788 0 31.893384L542.581506 511.963161l158.794609 158.795633C710.183711 679.565367 710.183711 693.844581 701.376115 702.651155z" p-id="2379" fill="#999999"></path></svg>