<?xml version="1.0" standalone="no"?><!DOCTYPE svg PUBLIC "-//W3C//DTD SVG 1.1//EN" "http://www.w3.org/Graphics/SVG/1.1/DTD/svg11.dtd"><svg t="1490593933159" class="icon" style="" viewBox="0 0 1024 1024" version="1.1" xmlns="http://www.w3.org/2000/svg" p-id="3864" xmlns:xlink="http://www.w3.org/1999/xlink" width="20" height="20"><defs><style type="text/css"></style></defs><path d="M0 0C0 565.539584 458.460416 1024 1024 1024L1024 0 0 0 0 0 0 0ZM608.127206 426.810982 734.960256 553.892762C744.888294 563.840256 744.83817 580.030848 734.84073 590.047872 724.773606 600.134758 708.687795 600.118528 698.756378 590.167629L571.923328 463.08585 445.090278 590.167629C435.162266 600.115123 419.003366 600.064922 409.005926 590.047872 398.938803 579.961011 398.955008 563.843661 408.886426 553.892762L535.719475 426.810982 408.886426 299.729203C398.958387 289.781709 399.008512 273.591117 409.005926 263.574093 419.07305 253.487206 435.158861 253.503437 445.090278 263.454336L571.923328 390.536115 698.756378 263.454336C708.684416 253.506842 724.843315 253.557043 734.84073 263.574093 744.907853 273.660954 744.891674 289.778304 734.960256 299.729203L608.127206 426.810982 608.127206 426.810982 608.127206 426.810982 608.127206 426.810982Z" p-id="3865"></path></svg>