<?xml version="1.0" standalone="no"?><!DOCTYPE svg PUBLIC "-//W3C//DTD SVG 1.1//EN" "http://www.w3.org/Graphics/SVG/1.1/DTD/svg11.dtd"><svg t="1490782396849" class="icon" style="" viewBox="0 0 1024 1024" version="1.1" xmlns="http://www.w3.org/2000/svg" p-id="25306" xmlns:xlink="http://www.w3.org/1999/xlink" width="20" height="20"><defs><style type="text/css"></style></defs><path d="M715.776 758.272c8.704-29.696 21.504-41.472 18.432-166.912 216.576-210.944 224.768-507.904 225.28-526.336l0.512-0.512h-0.512v-0.512l-0.512 0.512c-17.92-0.512-309.248-3.584-524.288 208.896-122.88-8.192-134.656 4.608-164.352 12.288-54.272 14.336-189.952 157.184-204.288 207.36-14.336 50.176 38.4 58.88 57.856 61.44 18.944 2.048 122.368-7.68 131.072 6.656 0 0 16.384 11.776 16.384 43.008 0 30.72 13.824 73.728 35.328 100.352l0.512 0.512 0.512 0.512c25.6 23.04 67.072 38.4 97.28 39.936 30.208 1.536 41.472 18.432 41.472 18.432 13.824 9.216 0 114.176 1.536 133.632 1.536 19.456 8.192 73.728 57.856 61.44 48.64-13.312 194.048-145.92 209.92-200.704z m-139.264-318.464c-39.424-41.984-37.888-108.544 3.072-148.48 40.96-40.448 106.496-39.424 145.92 2.56 39.424 41.984 37.888 108.544-3.072 148.48-40.96 40.448-106.496 39.424-145.92-2.56zM329.728 788.48c-32.256-5.12-54.784-19.968-71.168-37.888-16.896-17.408-30.208-40.96-34.304-74.24-4.096-29.184-19.968-42.496-38.4-40.448-17.92 2.048-79.36 67.072-83.456 90.624-4.608 23.552 29.184 12.8 46.08 29.184s-3.584 63.488-16.896 89.088c-6.656 12.8-10.752 27.136-5.12 34.816 7.168 6.144 20.992 2.56 34.304-3.584 25.6-12.288 72.704-31.232 88.064-13.824 15.36 17.92 3.584 51.712 26.624 48.128 23.04-3.584 89.088-62.976 92.16-81.408 3.072-17.92-9.728-34.816-37.888-40.448z m0 0" fill="" p-id="25307"></path></svg>