<?xml version="1.0" standalone="no"?><!DOCTYPE svg PUBLIC "-//W3C//DTD SVG 1.1//EN" "http://www.w3.org/Graphics/SVG/1.1/DTD/svg11.dtd"><svg t="1490768070570" class="icon" style="" viewBox="0 0 1024 1024" version="1.1" xmlns="http://www.w3.org/2000/svg" p-id="15572" xmlns:xlink="http://www.w3.org/1999/xlink" width="20" height="20"><defs><style type="text/css"></style></defs><path d="M537.440415 64.020082c-282.543028 0-506.216273 172.632779-506.216273 385.567449 0 120.593566 69.146846 228.241284 184.161347 298.948673 26.057469 16.007579 29.008684 136.187729-117.490901 208.739115 0 0 207.42519 34.229592 338.964038-139.744741 32.529881 4.88424 66.168002 15.305591 100.582813 15.305591 282.543028 0 454.749088-170.300664 454.749088-383.249661C992.18848 236.651838 819.983443 64.020082 537.440415 64.020082zM255.863389 543.725562c-52.986795 0-95.941096-42.954301-95.941096-95.941096s42.954301-95.941096 95.941096-95.941096c52.986795 0 95.941096 42.954301 95.941096 95.941096S308.850184 543.725562 255.863389 543.725562zM511.706311 543.725562c-52.986795 0-95.941096-42.954301-95.941096-95.941096s42.954301-95.941096 95.941096-95.941096c52.986795 0 95.941096 42.954301 95.941096 95.941096S564.693106 543.725562 511.706311 543.725562zM767.549234 543.725562c-52.986795 0-95.941096-42.954301-95.941096-95.941096s42.954301-95.941096 95.941096-95.941096c52.986795 0 95.941096 42.954301 95.941096 95.941096S820.536029 543.725562 767.549234 543.725562z" p-id="15573"></path></svg>