<?xml version="1.0" standalone="no"?><!DOCTYPE svg PUBLIC "-//W3C//DTD SVG 1.1//EN" "http://www.w3.org/Graphics/SVG/1.1/DTD/svg11.dtd"><svg t="1490767992262" class="icon" style="" viewBox="0 0 1024 1024" version="1.1" xmlns="http://www.w3.org/2000/svg" p-id="14858" xmlns:xlink="http://www.w3.org/1999/xlink" width="20" height="20"><defs><style type="text/css"></style></defs><path d="M758.217704 46.175669l-487.318878 0c-25.63075 0-46.411029 20.781302-46.411029 46.411029l0 838.826604c0 25.63075 20.781302 46.411029 46.411029 46.411029l487.318878 0c25.63075 0 46.411029-20.781302 46.411029-46.411029L804.628734 92.586698C804.628734 66.955948 783.848455 46.175669 758.217704 46.175669zM514.558265 929.554978c-28.871561 0-52.280714-23.409153-52.280714-52.280714 0-28.871561 23.409153-52.280714 52.280714-52.280714 28.871561 0 52.280714 23.409153 52.280714 52.280714C566.838979 906.144802 543.428803 929.554978 514.558265 929.554978zM758.217704 757.370407l-487.318878 0L270.898827 130.817418l487.318878 0L758.217704 757.370407z" p-id="14859" fill="#999999"></path></svg>